<svg id="Camada_1" data-name="Camada 1" xmlns="http://www.w3.org/2000/svg" viewBox="0 0 324.44 355.33"><defs><style>.cls-1{fill:#9b9b9b;}</style></defs><title>radinho</title><path class="cls-1" d="M368.86,154.18,192.1,69.5a21.43,21.43,0,1,0-14.55,22.73l129.19,61.89H137.57a49.19,49.19,0,0,0-49.19,49.19v192.2a10.28,10.28,0,0,0,10.28,10.28H402.54a10.28,10.28,0,0,0,10.28-10.28v-195A46.37,46.37,0,0,0,368.86,154.18Zm11.52,216.16a10.28,10.28,0,0,1-10.28,10.28h-239a10.27,10.27,0,0,1-10.27-10.28V228.48A49.19,49.19,0,0,1,170,179.29H334a46.36,46.36,0,0,1,46.37,46.36Z" transform="translate(-88.38 -50.46)"/><circle class="cls-1" cx="109.06" cy="205.95" r="10.68"/><circle class="cls-1" cx="185.02" cy="205.95" r="10.68"/><path class="cls-1" d="M339.15,328.93s-.75,3.77-2,5.07a6.53,6.53,0,0,1-4.78,2.1s-50.06-27.3-84.23-27.3-84.23,27.3-84.23,27.3a7,7,0,0,1-6.76-7.17,7.35,7.35,0,0,1,2-5.07c1.23-1.3,53.1-26.81,89-26.81S325.27,313.07,339.15,328.93Z" transform="translate(-88.38 -50.46)"/></svg>